<?xml version="1.0" standalone="no"?><!DOCTYPE svg PUBLIC "-//W3C//DTD SVG 1.1//EN" "http://www.w3.org/Graphics/SVG/1.1/DTD/svg11.dtd"><svg t="1712823609545" class="icon" viewBox="0 0 1024 1024" version="1.1" xmlns="http://www.w3.org/2000/svg" p-id="4177" xmlns:xlink="http://www.w3.org/1999/xlink" width="200" height="200"><path d="M928 0a32 32 0 0 1 32 32v960a32 32 0 0 1-64 0V32a32 32 0 0 1 32-32z m-576 192h448a32 32 0 0 1 32 32v192a32 32 0 0 1-32 32h-448a32 32 0 0 1-32-32v-192a32 32 0 0 1 32-32z m-256 384h704a32 32 0 0 1 32 32v192a32 32 0 0 1-32 32H96a32 32 0 0 1-32-32v-192A32 32 0 0 1 96 576z" fill="#ffffff" p-id="4178"></path></svg>