<?xml version="1.0" standalone="no"?><!DOCTYPE svg PUBLIC "-//W3C//DTD SVG 1.1//EN" "http://www.w3.org/Graphics/SVG/1.1/DTD/svg11.dtd"><svg t="1712823957090" class="icon" viewBox="0 0 1170 1024" version="1.1" xmlns="http://www.w3.org/2000/svg" p-id="7474" xmlns:xlink="http://www.w3.org/1999/xlink" width="228.515625" height="200"><path d="M1170.285714 987.428571a36.571429 36.571429 0 0 0-36.571428-36.571428H36.571429a36.571429 36.571429 0 0 0 0 73.142857h1097.142857a36.571429 36.571429 0 0 0 36.571428-36.571429z m-219.428571-146.285714v-512a36.571429 36.571429 0 0 0-36.571429-36.571428h-219.428571a36.571429 36.571429 0 0 0-36.571429 36.571428v512a36.571429 36.571429 0 0 0 36.571429 36.571429h219.428571a36.571429 36.571429 0 0 0 36.571429-36.571429z m-438.857143 0V36.571429a36.571429 36.571429 0 0 0-36.571429-36.571429h-219.428571a36.571429 36.571429 0 0 0-36.571429 36.571429v804.571428a36.571429 36.571429 0 0 0 36.571429 36.571429h219.428571a36.571429 36.571429 0 0 0 36.571429-36.571429z" fill="#ffffff" p-id="7475"></path></svg>