<?xml version="1.0" standalone="no"?><!DOCTYPE svg PUBLIC "-//W3C//DTD SVG 1.1//EN" "http://www.w3.org/Graphics/SVG/1.1/DTD/svg11.dtd"><svg t="1712829699620" class="icon" viewBox="0 0 1024 1024" version="1.1" xmlns="http://www.w3.org/2000/svg" p-id="37510" xmlns:xlink="http://www.w3.org/1999/xlink" width="200" height="200"><path d="M138.646222 830.642201c-30.123065 0-54.499242-24.197098-54.499242-54.1769V247.50093c0-29.943986 24.376177-54.1769 54.499242-54.1769h749.384525c23.127743 0 41.899272-18.666128 41.899272-41.686424 0-22.984481-18.772552-41.650609-41.899272-41.650609H138.646222C62.411957 109.986997 0.347412 171.659615 0.347412 247.50093v529.033955c0 75.734892 62.029752 137.479141 138.29881 137.479141 23.127743 0 41.900296-18.629289 41.900295-41.613769 0-23.056112-18.772552-41.687448-41.900295-41.687448v-0.070608z m419.964864-287.377127c17.34504 0 31.478945-13.990642 31.478945-31.265074v-91.045599c0-17.238616-14.133905-31.229259-31.478945-31.229259h-122.059964c-17.34504 0-31.44313 13.990642-31.443129 31.229259 0 17.273409 14.097066 31.264051 31.443129 31.264051h90.65265v28.552289h-90.65265c-17.34504 0-31.44313 13.954827-31.443129 31.229259v91.010807c0 17.274432 14.097066 31.265074 31.443129 31.265074h122.059964c17.34504 0 31.478945-13.990642 31.478945-31.265074 0-17.202801-14.133905-31.19242-31.478945-31.19242h-90.616834v-28.552289h90.616834z m165.387771 28.55229c-17.417695 0-31.478945 13.990642-31.478945 31.192419 0 17.274432 14.06125 31.265074 31.478945 31.265075h122.059963c17.274432 0 31.406291-13.990642 31.406291-31.265075V420.954401c0-17.238616-14.132882-31.229259-31.406291-31.229259H723.928249c-17.346063 0-31.407314 13.990642-31.407314 31.229259 0 17.273409 14.06125 31.264051 31.407314 31.264051h90.652649v28.552289H723.928249c-17.346063 0-31.407314 13.954827-31.407314 31.229259s14.06125 31.265074 31.407314 31.265074h90.652649v28.55229h-90.582041z m161.320129-461.794551c-23.127743 0-41.829687 18.630313-41.829688 41.650608s18.701944 41.686425 41.829688 41.686425c30.122041 0 54.534034 24.233937 54.534034 54.142108V776.535909c0 29.910217-24.411993 54.1769-54.534034 54.1769H135.933437c-23.12672 0-41.900296 18.631336-41.900295 41.687448 0 22.984481 18.773576 41.61377 41.900295 41.613769h749.385549c76.233242 0 138.334625-61.672618 138.334625-137.479141V247.50093c-0.001023-75.8055-62.101383-137.478118-138.334625-137.478117z m-625.54094 284.878212c-8.744151-5.78168-19.843954-6.817266-29.551036-2.7486l-64.421218 26.981514c-15.989159 6.709819-23.51967 25.018813-16.774036 40.936341s25.161053 23.376407 41.150213 16.667612l20.806885-8.708336v134.980227c0 17.274432 14.06125 31.265074 31.443129 31.265075 17.34504 0 31.407314-13.990642 31.407314-31.265075V420.954401c0-10.457166-5.282307-20.23588-14.062274-26.01756v-0.035816z m0 0" fill="#2c2c2c" p-id="37511"></path></svg>