<?xml version="1.0" standalone="no"?><!DOCTYPE svg PUBLIC "-//W3C//DTD SVG 1.1//EN" "http://www.w3.org/Graphics/SVG/1.1/DTD/svg11.dtd"><svg t="1712829802501" class="icon" viewBox="0 0 1024 1024" version="1.1" xmlns="http://www.w3.org/2000/svg" p-id="42204" xmlns:xlink="http://www.w3.org/1999/xlink" width="200" height="200"><path d="M896 128a42.7 42.7 0 0 1 42.7 42.7v682.7a42.7 42.7 0 0 1-42.7 42.7H128a42.7 42.7 0 0 1-42.7-42.7V170.7A42.7 42.7 0 0 1 128 128h768z m-42.7 85.3H170.7v597.3h682.7V213.3zM401 341.3l136.5 341.3h-91.9l-17.1-42.7H288.1L271 682.6h-91.8l136.5-341.3H401z m409.7 0v341.3h-128a128 128 0 0 1 0-256h42.6v-85.3h85.3zM725.4 512h-42.7a42.7 42.7 0 0 0-5 85l5 0.3h42.7V512z m-367-47.6l-36.2 90.3h72.2l-36.1-90.2z" p-id="42205" fill="#2c2c2c"></path></svg>