<?xml version="1.0" standalone="no"?><!DOCTYPE svg PUBLIC "-//W3C//DTD SVG 1.1//EN" "http://www.w3.org/Graphics/SVG/1.1/DTD/svg11.dtd"><svg t="1712824218963" class="icon" viewBox="0 0 1364 1024" version="1.1" xmlns="http://www.w3.org/2000/svg" p-id="11073" xmlns:xlink="http://www.w3.org/1999/xlink" width="266.40625" height="200"><path d="M0 868.133711q0-37.745857 37.744857-37.745857h1132.347709q37.744857 0 37.744857 37.745857 0 37.744857-37.744857 37.744857H37.744857Q0 905.878568 0 868.133711zM0 37.744857Q0 0 37.744857 0h1132.347709q37.744857 0 37.744857 37.744857t-37.744857 37.744857H37.744857Q0 75.489714 0 37.744857zM943.623425 641.663569H264.213999q-37.744857 0-37.744857-37.744857v-301.958856q0-37.745857 37.744857-37.745857h679.409426q37.744857 0 37.744857 37.745857v301.958856q0 37.744857-37.744857 37.744857z" p-id="11074" fill="#ffffff"></path></svg>