<?xml version="1.0" standalone="no"?><!DOCTYPE svg PUBLIC "-//W3C//DTD SVG 1.1//EN" "http://www.w3.org/Graphics/SVG/1.1/DTD/svg11.dtd"><svg t="1712824088602" class="icon" viewBox="0 0 1024 1024" version="1.1" xmlns="http://www.w3.org/2000/svg" p-id="9985" xmlns:xlink="http://www.w3.org/1999/xlink" width="200" height="200"><path d="M111.105754 0.00448H55.233998A23.231898 23.231898 0 0 0 32.0021 23.236378v977.531724c0 12.927943 10.495954 23.231898 23.231898 23.231898h55.871756a23.231898 23.231898 0 0 0 23.231898-23.231898V23.428378A23.167899 23.167899 0 0 0 111.105754 0.00448z m831.99636 0h-55.871756A23.231898 23.231898 0 0 0 863.99846 23.236378v977.531724c0 12.927943 10.495954 23.231898 23.231898 23.231898h55.871756a23.231898 23.231898 0 0 0 23.231898-23.231898V23.428378A23.167899 23.167899 0 0 0 943.102114 0.00448zM352.0007 106.244015v834.620349c0 12.927943 10.431954 23.295898 23.231898 23.295898h232.638983a23.231898 23.231898 0 0 0 23.295898-23.295898V106.308015a23.231898 23.231898 0 0 0-23.295898-23.295898H375.424598A23.167899 23.167899 0 0 0 352.0007 106.244015z" p-id="9986" fill="#ffffff"></path></svg>