<?xml version="1.0" standalone="no"?><!DOCTYPE svg PUBLIC "-//W3C//DTD SVG 1.1//EN" "http://www.w3.org/Graphics/SVG/1.1/DTD/svg11.dtd"><svg t="1713320359763" class="icon" viewBox="0 0 1024 1024" version="1.1" xmlns="http://www.w3.org/2000/svg" p-id="5863" xmlns:xlink="http://www.w3.org/1999/xlink" width="200" height="200"><path d="M508.104273 203.742311c-123.516128 0-223.99047 100.475366-223.99047 223.99047s100.475366 223.99047 223.99047 223.99047 223.99047-100.475366 223.99047-223.99047S631.619378 203.742311 508.104273 203.742311zM508.104273 630.390387c-111.745037 0-202.658629-90.912569-202.658629-202.658629s90.912569-202.658629 202.658629-202.658629S710.761879 315.986721 710.761879 427.732781 619.84931 630.390387 508.104273 630.390387z" fill="#2c2c2c" p-id="5864"></path><path d="M833.199443 650.993634c43.779086-63.554478 69.554122-140.421146 69.554122-223.261876 0-217.616296-177.034019-394.650315-394.650315-394.650315S113.453958 210.116485 113.453958 427.732781c0 85.386716 27.545356 164.306136 73.814146 228.953506L73.987085 852.501044l106.922195 35.154661c11.249205 3.698229 21.608134 9.6815 30.436196 17.567098l83.908038 75.022671 100.664677-174.336584c35.599799 10.577916 73.197092 16.473183 112.185059 16.473183 41.373293 0 81.246419-6.468318 118.747521-18.332531l101.893668 176.195931 83.908038-75.022671c8.828063-7.885598 19.186991-13.868869 30.436196-17.567098l106.922195-35.154661L833.199443 650.993634zM289.89446 946.862155l-73.434499-65.674769c-5.015224-4.484128-10.903328-7.885598-17.293875-9.984399l-93.577259-30.753421 95.584985-165.181063c45.154409 55.877635 105.281835 98.917894 174.154435 123.640971L289.89446 946.862155zM508.104273 801.050232c-205.845205 0-373.317451-167.472246-373.317451-373.317451S302.259068 54.414307 508.104273 54.414307 881.421724 221.886553 881.421724 427.732781 713.949478 801.050232 508.104273 801.050232zM824.832891 871.204012c-6.390547 2.098801-12.277628 5.500271-17.293875 9.984399l-73.434499 65.674769L647.183865 796.597827c68.49193-25.915229 127.845737-70.194712 172.114986-127.031185l99.110275 170.883949L824.832891 871.204012z" fill="#2c2c2c" p-id="5865"></path></svg>