<?xml version="1.0" standalone="no"?><!DOCTYPE svg PUBLIC "-//W3C//DTD SVG 1.1//EN" "http://www.w3.org/Graphics/SVG/1.1/DTD/svg11.dtd"><svg t="1713320412770" class="icon" viewBox="0 0 1024 1024" version="1.1" xmlns="http://www.w3.org/2000/svg" p-id="6122" xmlns:xlink="http://www.w3.org/1999/xlink" width="200" height="200"><path d="M831.014684 653.592832c43.215244-63.048965 68.609611-139.225925 68.609611-221.271546 0-216.407772-176.053692-392.461463-392.461463-392.461463S114.700345 215.913515 114.700345 432.321286c0 85.285408 27.646664 164.069753 74.02904 228.512461L73.597205 856.55436l106.789165 35.110659c11.235902 3.693112 21.581528 9.670244 30.398334 17.544585l83.803661 74.92955 101.248985-175.679162c35.329646 10.481725 72.640414 16.322757 111.324458 16.322757 41.706891 0 81.8471-6.674003 119.584586-18.777669l102.664218 178.134073 83.803661-74.92955c8.816806-7.875365 19.162432-13.851473 30.398334-17.544585l106.789165-35.110659L831.014684 653.592832zM289.23545 950.797791l-73.342402-65.591881c-5.009084-4.479011-10.890025-7.875365-17.272385-9.971096l-93.459578-30.715559 97.373725-165.229159c44.86379 55.230905 104.505146 97.748255 172.73511 122.206296L289.23545 950.797791zM507.161808 686.263929c-140.027174 0-253.945713-113.915469-253.945713-253.942643s113.917516-253.947759 253.945713-253.947759 253.945713 113.920586 253.945713 253.947759S647.190005 686.263929 507.161808 686.263929zM825.378314 875.233791c-6.382361 2.096754-12.263301 5.493108-17.272385 9.971096l-73.342402 65.591881-87.722924-152.235217c67.754127-25.966395 126.412085-70.060659 170.160471-126.508275l101.636818 172.464957L825.378314 875.233791z" fill="#2c2c2c" p-id="6123"></path><path d="M507.161808 210.035644c-122.570593 0-222.285642 99.715049-222.285642 222.285642 0 122.565477 99.715049 222.285642 222.285642 222.285642s222.285642-99.720166 222.285642-222.285642C729.448474 309.750693 629.733425 210.035644 507.161808 210.035644z" fill="#2c2c2c" p-id="6124"></path></svg>