<?xml version="1.0" standalone="no"?><!DOCTYPE svg PUBLIC "-//W3C//DTD SVG 1.1//EN" "http://www.w3.org/Graphics/SVG/1.1/DTD/svg11.dtd"><svg t="1712830003606" class="icon" viewBox="0 0 1024 1024" version="1.1" xmlns="http://www.w3.org/2000/svg" p-id="46986" xmlns:xlink="http://www.w3.org/1999/xlink" width="200" height="200"><path d="M434.087 765.774c0-178.087 144.696-325.009 322.783-325.009 37.843 0 75.687 6.678 109.078 20.035V48.974C865.948 22.26 848.139 0 825.878 0H42.296C17.809 0 0 22.26 0 48.974v926.052C0 1001.74 17.809 1024 42.296 1024h518.678c-77.913-60.104-126.887-151.374-126.887-258.226zM120.209 144.696c4.452-11.13 13.356-20.035 24.487-20.035h320.556c15.583-2.226 31.165 13.356 31.165 31.165 2.226 20.035-11.13 35.617-26.713 37.844H149.148c-11.13 0-20.035-4.453-26.713-15.583-6.678-8.904-6.678-22.26-2.226-33.391z m0 207.026c4.452-11.13 13.356-17.809 24.487-20.035h320.556c15.583-2.226 28.94 13.356 31.165 31.165s-11.13 35.618-26.713 37.844H149.148c-11.13 0-20.035-4.453-26.713-15.583-6.678-8.904-6.678-22.26-2.226-33.391z m160.278 253.774h-131.34c-15.582 2.226-31.164-13.357-31.164-31.166-2.226-20.034 11.13-35.617 26.713-37.843h131.339c15.582 0 28.939 13.356 31.165 31.165 0 20.035-11.13 35.618-26.713 37.844zM825.878 705.67h51.2V819.2h-51.2z" p-id="46987" fill="#2c2c2c"></path><path d="M946.087 574.33c-51.2-48.973-117.983-75.687-186.991-73.46-142.47 2.226-258.226 120.208-256 264.904 0 142.47 117.982 258.226 262.678 258.226S1024 906.017 1024 761.322c0-69.009-26.713-135.792-77.913-186.992z m-182.54 282.713h-40.069l-73.46-117.982v117.982h-37.844V667.826h37.843l75.687 117.983V665.6h37.844v191.443zM914.923 819.2c0 20.035-17.809 37.843-37.844 37.843h-51.2c-20.035 0-37.843-17.808-37.843-37.843V705.67c0-20.035 17.808-37.844 37.843-37.844h51.2c20.035 0 37.844 17.809 37.844 37.844V819.2z" p-id="46988" fill="#2c2c2c"></path></svg>