<?xml version="1.0" standalone="no"?><!DOCTYPE svg PUBLIC "-//W3C//DTD SVG 1.1//EN" "http://www.w3.org/Graphics/SVG/1.1/DTD/svg11.dtd"><svg t="1712830110092" class="icon" viewBox="0 0 1024 1024" version="1.1" xmlns="http://www.w3.org/2000/svg" p-id="50774" xmlns:xlink="http://www.w3.org/1999/xlink" width="200" height="200"><path d="M827.860697 91.701493c28.137075 0 50.945274 22.808199 50.945273 50.945273v743.800995c0 28.137075-22.808199 50.945274-50.945273 50.945274H201.233831c-28.137075 0-50.945274-22.808199-50.945274-50.945274V142.646766c0-28.137075 22.808199-50.945274 50.945274-50.945273h626.626866z m-91.044299 591.235184h-422.845771a30.567164 30.567164 0 0 0-30.567164 30.567164v2.430089a30.567164 30.567164 0 0 0 30.567164 30.567165h422.845771a30.567164 30.567164 0 0 0 30.567164-30.567165v-2.430089a30.567164 30.567164 0 0 0-30.567164-30.567164z m-127.363184-199.868498h-295.482587a30.567164 30.567164 0 0 0-30.567164 30.567164v2.43009a30.567164 30.567164 0 0 0 30.567164 30.567164h295.482587a30.567164 30.567164 0 0 0 30.567164-30.567164v-2.43009a30.567164 30.567164 0 0 0-30.567164-30.567164z m-127.363184-199.868497h-168.119403a30.567164 30.567164 0 0 0-30.567164 30.567164v2.430089a30.567164 30.567164 0 0 0 30.567164 30.567165h168.119403a30.567164 30.567164 0 0 0 30.567164-30.567165v-2.430089a30.567164 30.567164 0 0 0-30.567164-30.567164z" fill="#2c2c2c" p-id="50775"></path></svg>